<svg width="19" height="22" viewBox="0 0 19 22" fill="none" xmlns="http://www.w3.org/2000/svg">
<path d="M17.5 12C17.5 17 14 19.5 9.84 20.95C9.62216 21.0238 9.38554 21.0202 9.17 20.94C5 19.5 1.5 17 1.5 12V4.99996C1.5 4.73474 1.60536 4.48039 1.79289 4.29285C1.98043 4.10532 2.23478 3.99996 2.5 3.99996C4.5 3.99996 7 2.79996 8.74 1.27996C8.95185 1.09896 9.22135 0.999512 9.5 0.999512C9.77865 0.999512 10.0481 1.09896 10.26 1.27996C12.01 2.80996 14.5 3.99996 16.5 3.99996C16.7652 3.99996 17.0196 4.10532 17.2071 4.29285C17.3946 4.48039 17.5 4.73474 17.5 4.99996V12Z" stroke="#FAE006" stroke-width="2" stroke-linecap="round" stroke-linejoin="round"/>
</svg>
