<svg width="18" height="19" viewBox="0 0 18 19" fill="none" xmlns="http://www.w3.org/2000/svg">
<path d="M9 18.5C13.9706 18.5 18 14.4706 18 9.5C18 4.52944 13.9706 0.5 9 0.5C4.02944 0.5 0 4.52944 0 9.5C0 14.4706 4.02944 18.5 9 18.5Z" fill="#88C9F9"/>
<path d="M1.406 13.1875C1.375 12.6875 1.375 12.594 1.375 12C1.375 11.406 1.656 11.5 1.9375 11.219C2.219 10.938 2.1565 10.9065 2.625 10.5985C3.0935 10.2905 2.844 9.93799 2.8125 9.75049C2.781 9.56299 2.5 9.71899 2.031 9.78099C1.562 9.84299 1.719 9.62499 1.4375 9.49999C1.156 9.37499 1.0315 9.18749 0.8435 8.62499C0.6555 8.06249 0.6245 7.90599 0.6875 7.43749C0.7505 6.96899 0.969 7.40599 1 7.90599C1.031 8.40599 1.469 8.21849 1.469 8.53099C1.469 8.84349 2.094 9.18699 2.25 9.28099C2.406 9.37499 2.844 8.81199 3 8.65599C3.156 8.49999 3.344 8.28099 3.406 8.15599C3.468 8.03099 4.25 7.93699 4.406 7.93699C4.562 7.93699 4.937 8.40599 4.937 8.62449C4.937 8.84299 5.1245 9.43699 5.281 9.78049C5.4375 10.124 5.781 10.1865 6.0935 10.4365C6.406 10.6865 6.5625 10.4675 6.5625 10.4675C6.5625 10.4675 6.4375 9.93649 6.4375 9.49849C6.4375 9.06049 6.8125 8.68599 6.8125 8.68599C6.8125 8.68599 7.4065 9.12349 7.4375 9.24849C7.4685 9.37349 7.9375 9.81099 7.9685 10.0295C7.9995 10.248 8.2495 10.5295 8.71 10.592C9.1705 10.6545 8.8435 10.061 8.9995 9.65449C9.1555 9.24799 9.3745 9.18549 9.6555 9.12349C9.9365 9.06149 10.1555 8.81099 10.343 8.56099C10.5305 8.31099 10.874 7.96699 10.843 7.68599C10.812 7.40499 10.718 7.21699 10.593 6.87349C10.468 6.52999 10.968 6.40449 11.187 5.99849C11.406 5.59249 11.187 5.99849 11.687 5.87349C12.187 5.74849 11.968 5.74849 12.062 5.56099C12.156 5.37349 12.218 5.18599 12.1245 4.84199C12.031 4.49799 11.687 4.84199 11.3435 4.84199C11 4.84199 11.469 4.37499 11.5 3.99999C11.531 3.62499 11.969 3.71899 12.281 3.68749C12.593 3.65599 12.687 4.09349 12.781 4.18749C12.875 4.28149 13.8435 3.56249 14.0935 3.21849C14.3435 2.87449 13.875 2.96899 14 2.82399C14.125 2.67899 13.25 2.64949 12.906 2.59399C12.562 2.53849 11.6875 2.49999 11.344 2.28799C11.0005 2.07599 9.688 2.23599 9.344 2.40649C9 2.57699 8.7815 2.39199 8.625 2.15649C8.4685 1.92099 7.8125 2.03899 7.625 1.90649C7.4375 1.77399 7.25 2.12499 7 2.21899C6.75 2.31299 6.656 2.34399 6.344 2.15649C6.032 1.96899 6.4375 1.74999 6 1.59399C5.707 1.48949 5.356 1.55049 4.81 1.53849C1.951 3.04599 0 6.04349 0 9.49999C0 11.21 0.4855 12.8025 1.3135 14.1635C1.4675 13.9045 1.429 13.555 1.406 13.1875ZM8.656 12.594C8.875 12.625 9.5 12.594 9 12.188C8.5 11.782 8.219 12.094 8.281 11.6255C8.343 11.157 7.9685 11.1565 7.9685 11.1565C7.9685 11.5005 7.7185 11.8755 7.9685 12.219C8.2185 12.5625 8.4375 12.5625 8.656 12.594Z" fill="#5C913B"/>
<path d="M11.8439 7.37501C11.3439 6.96901 11.7189 7.09401 11.7814 6.62501C11.8439 6.15601 11.4689 6.15601 11.4689 6.15601C11.4689 6.50001 11.2189 6.87501 11.4689 7.21851C11.7189 7.56201 10.9689 7.84351 11.1879 7.87451C11.4069 7.90551 12.3439 7.78101 11.8439 7.37501ZM9.90395 12.25C10.2139 12.594 10.0939 12.25 10.4999 12.094C10.9059 11.938 10.1559 11.594 9.90595 11.4065C9.65595 11.219 9.40745 11.212 9.18895 11.6255C8.94095 12.094 9.59395 11.906 9.90395 12.25ZM13.5624 12.875C13.4064 12.6875 13.0624 12.594 12.6874 12.6025C12.3124 12.6115 12.3434 12.1875 11.9684 12.2185C11.5934 12.2495 11.3254 11.9665 11.1559 11.879C10.7874 11.689 11.0309 12.1245 11.1559 12.602C11.2809 13.0795 11.7499 12.718 12.1869 12.968C12.6239 13.218 12.6559 12.874 13.0619 12.999C13.4679 13.124 13.6244 13.405 14.0139 13.374C14.4034 13.343 13.7189 13.0625 13.5624 12.875ZM12.7499 14.25C12.5939 13.9375 12.1369 13.656 11.9494 13.4975C11.7619 13.339 11.4684 13.2855 11.2184 13.3775C10.9684 13.4695 10.8124 13.3775 10.6874 13.13C10.5624 12.8825 10.3434 12.969 10.1564 13C9.96945 13.031 9.21895 13.344 8.78145 13.5625C8.34395 13.781 8.14495 13.971 7.85795 14.25C7.40895 14.687 7.65645 14.406 7.85795 14.6875C8.05945 14.9685 7.63695 15.8435 7.60595 16.3435C7.57495 16.8435 8.40695 16.1875 8.71945 16.1245C9.03195 16.0615 8.93995 15.8745 9.18995 15.687C9.43995 15.4995 9.60245 15.4555 9.87695 15.7055C10.1514 15.9555 10.5109 16.187 10.5109 16.468C10.5109 16.749 11.5004 17.218 11.8754 17.0305C12.2504 16.843 12.4694 16.468 12.8129 16.1555C13.1564 15.843 13.0319 15.2495 13.1254 14.8745C13.2189 14.4995 12.9059 14.5625 12.7499 14.25Z" fill="#5C913B"/>
</svg>
