<svg width="16" height="16" viewBox="0 0 16 16" fill="none" xmlns="http://www.w3.org/2000/svg">
<path d="M9.6574 11.1976C9.80197 11.264 9.96484 11.2792 10.1192 11.2406C10.2735 11.2021 10.4101 11.1121 10.5065 10.9855L10.755 10.66C10.8854 10.4861 11.0545 10.345 11.2489 10.2478C11.4433 10.1506 11.6577 10.1 11.875 10.1H13.975C14.3463 10.1 14.7024 10.2475 14.9649 10.5101C15.2275 10.7726 15.375 11.1287 15.375 11.5V13.6C15.375 13.9713 15.2275 14.3274 14.9649 14.5899C14.7024 14.8525 14.3463 15 13.975 15C10.6333 15 7.42841 13.6725 5.06545 11.3095C2.7025 8.94659 1.375 5.74173 1.375 2.4C1.375 2.0287 1.5225 1.6726 1.78505 1.41005C2.0476 1.1475 2.4037 1 2.775 1H4.875C5.2463 1 5.6024 1.1475 5.86495 1.41005C6.1275 1.6726 6.275 2.0287 6.275 2.4V4.5C6.275 4.71734 6.2244 4.9317 6.1272 5.1261C6.03 5.3205 5.88887 5.48959 5.715 5.62L5.3874 5.8657C5.25889 5.96382 5.16831 6.10341 5.13105 6.26075C5.09379 6.41808 5.11215 6.58346 5.183 6.7288C6.13968 8.67191 7.7131 10.2434 9.6574 11.1976Z" stroke="#4E545F" stroke-linecap="round" stroke-linejoin="round"/>
</svg>