<svg width="18" height="19" viewBox="0 0 18 19" fill="none" xmlns="http://www.w3.org/2000/svg">
<g clip-path="url(#clip0_53_419)">
<path d="M0 0.5H17C17.5523 0.5 18 0.947715 18 1.5V17.5C18 18.0523 17.5523 18.5 17 18.5H0" fill="#BD3D44"/>
<path d="M0 2.53906H18H0ZM0 5.31641H18H0ZM0 8.09375H18H0ZM0 10.8711H18H0ZM0 13.6484H18H0ZM0 16.4258H18H0Z" fill="white"/>
<path d="M0 2.53906H18M0 5.31641H18M0 8.09375H18M0 10.8711H18M0 13.6484H18M0 16.4258H18" stroke="white"/>
<path d="M0 1.5C0 0.947715 0.447715 0.5 1 0.5H12.7109C13.2632 0.5 13.7109 0.947715 13.7109 1.5V9.16797C13.7109 9.72025 13.2632 10.168 12.7109 10.168H1C0.447715 10.168 0 9.72025 0 9.16797V1.5Z" fill="#192F5D"/>
</g>
<defs>
<clipPath id="clip0_53_419">
<rect y="0.5" width="18" height="18" rx="9" fill="white"/>
</clipPath>
</defs>
</svg>
