<svg width="26" height="24" viewBox="0 0 26 24" fill="none" xmlns="http://www.w3.org/2000/svg">
<path d="M18.1382 7.76465C20.0644 7.76465 21.9118 8.5298 23.2739 9.89177C24.6359 11.2537 25.4011 13.101 25.4011 15.0271V23.4999H20.5592V15.0271C20.5592 14.385 20.3041 13.7693 19.8501 13.3153C19.3961 12.8613 18.7803 12.6063 18.1382 12.6063C17.4961 12.6063 16.8803 12.8613 16.4263 13.3153C15.9723 13.7693 15.7172 14.385 15.7172 15.0271V23.4999H10.8752V15.0271C10.8752 13.101 11.6404 11.2537 13.0025 9.89177C14.3646 8.5298 16.2119 7.76465 18.1382 7.76465Z" fill="white" stroke="white" stroke-linecap="round" stroke-linejoin="round"/>
<path d="M6.03251 8.97168H1.19055V23.4966H6.03251V8.97168Z" fill="white" stroke="white" stroke-linecap="round" stroke-linejoin="round"/>
<path d="M3.61153 5.34163C4.9486 5.34163 6.03251 4.25779 6.03251 2.92081C6.03251 1.58383 4.9486 0.5 3.61153 0.5C2.27446 0.5 1.19055 1.58383 1.19055 2.92081C1.19055 4.25779 2.27446 5.34163 3.61153 5.34163Z" fill="white" stroke="white" stroke-linecap="round" stroke-linejoin="round"/>
</svg>
