<svg width="25" height="21" viewBox="0 0 25 21" fill="none" xmlns="http://www.w3.org/2000/svg">
<path d="M24.9992 2.8754C24.0946 3.27623 23.1228 3.54706 22.1013 3.66948C23.1553 3.03876 23.9439 2.04607 24.3199 0.876646C23.3296 1.46489 22.2457 1.87894 21.1154 2.10081C20.3553 1.28925 19.3486 0.751333 18.2514 0.570576C17.1543 0.38982 16.0282 0.576337 15.0479 1.10117C14.0677 1.626 13.2881 2.45979 12.8303 3.47308C12.3724 4.48636 12.2619 5.62246 12.5159 6.70498C10.5092 6.60423 8.54618 6.08266 6.75413 5.17413C4.96207 4.2656 3.38108 2.9904 2.11375 1.43131C1.68042 2.17881 1.43125 3.04548 1.43125 3.96848C1.43077 4.79939 1.63539 5.61758 2.02695 6.35044C2.41852 7.0833 2.98493 7.70819 3.67592 8.16965C2.87455 8.14415 2.09086 7.92761 1.39008 7.53806V7.60306C1.39 8.76845 1.79312 9.89797 2.53103 10.8C3.26895 11.702 4.2962 12.3209 5.4385 12.5517C4.6951 12.7529 3.9157 12.7826 3.15917 12.6384C3.48146 13.6411 4.10925 14.518 4.95465 15.1462C5.80005 15.7745 6.82074 16.1226 7.87384 16.1419C6.08615 17.5453 3.87838 18.3065 1.60567 18.3031C1.20308 18.3033 0.800834 18.2797 0.401001 18.2327C2.70793 19.716 5.39337 20.5032 8.136 20.5001C17.4202 20.5001 22.4956 12.8106 22.4956 6.14165C22.4956 5.92498 22.4902 5.70615 22.4804 5.48948C23.4677 4.77554 24.3198 3.89145 24.997 2.87865L24.9992 2.8754Z" fill="white"/>
</svg>
