<svg width="23" height="24" viewBox="0 0 23 24" fill="none" xmlns="http://www.w3.org/2000/svg">
<path d="M16.6104 0.5C18.3048 0.5 19.9299 1.17311 21.128 2.37126C22.3262 3.56941 22.9993 5.19445 22.9993 6.88889V17.1111C22.9993 18.8055 22.3262 20.4306 21.128 21.6287C19.9299 22.8269 18.3048 23.5 16.6104 23.5H6.38816C4.69372 23.5 3.06868 22.8269 1.87053 21.6287C0.672381 20.4306 -0.000732422 18.8055 -0.000732422 17.1111V6.88889C-0.000732422 5.19445 0.672381 3.56941 1.87053 2.37126C3.06868 1.17311 4.69372 0.5 6.38816 0.5H16.6104ZM11.4993 6.88889C10.188 6.88889 8.92681 7.39289 7.97667 8.29665C7.02654 9.2004 6.46011 10.4348 6.39455 11.7444L6.38816 12C6.38816 13.0109 6.68792 13.9991 7.24953 14.8396C7.81115 15.6801 8.6094 16.3352 9.54333 16.7221C10.4773 17.1089 11.5049 17.2101 12.4964 17.0129C13.4879 16.8157 14.3986 16.3289 15.1134 15.6141C15.8282 14.8993 16.315 13.9886 16.5122 12.9971C16.7094 12.0057 16.6082 10.978 16.2213 10.0441C15.8345 9.11013 15.1794 8.31188 14.3388 7.75027C13.4983 7.18865 12.5101 6.88889 11.4993 6.88889ZM17.2493 4.97222C16.9363 4.97226 16.6342 5.08717 16.4003 5.29514C16.1665 5.50311 16.0171 5.78968 15.9804 6.1005L15.9715 6.26278C15.9719 6.58846 16.0966 6.90171 16.3201 7.13853C16.5437 7.37535 16.8493 7.51786 17.1744 7.53694C17.4995 7.55603 17.8196 7.45025 18.0694 7.24122C18.3191 7.03218 18.4796 6.73568 18.5181 6.41228L18.527 6.25C18.527 5.91111 18.3924 5.5861 18.1528 5.34648C17.9132 5.10685 17.5882 4.97222 17.2493 4.97222Z" fill="white"/>
</svg>
