<svg width="108" height="36" viewBox="0 0 108 36" fill="none" xmlns="http://www.w3.org/2000/svg">
<path d="M17.775 35.55C27.5918 35.55 35.5499 27.5919 35.5499 17.775C35.5499 7.95814 27.5918 0 17.775 0C7.95812 0 0 7.95814 0 17.775C0 27.5919 7.95812 35.55 17.775 35.55Z" fill="#FCDD00"/>
<path d="M107.122 7.85374C107.122 8.14986 107.103 8.41733 107.065 8.65614H101.033C101.08 9.28659 101.314 9.79287 101.735 10.175C102.155 10.5571 102.671 10.7481 103.282 10.7481C104.161 10.7481 104.782 10.3803 105.145 9.64481H106.907C106.668 10.3708 106.234 10.9678 105.603 11.4359C104.982 11.8944 104.209 12.1236 103.282 12.1236C102.528 12.1236 101.849 11.9565 101.247 11.6221C100.655 11.2783 100.187 10.8006 99.8433 10.1893C99.509 9.56839 99.3418 8.85196 99.3418 8.04001C99.3418 7.22806 99.5042 6.51641 99.829 5.90506C100.163 5.28415 100.627 4.80653 101.219 4.4722C101.821 4.13787 102.508 3.9707 103.282 3.9707C104.027 3.9707 104.691 4.13309 105.274 4.45787C105.856 4.78265 106.31 5.24117 106.635 5.83341C106.96 6.41611 107.122 7.08955 107.122 7.85374ZM105.417 7.33791C105.408 6.73611 105.193 6.25372 104.772 5.89073C104.352 5.52774 103.831 5.34624 103.21 5.34624C102.647 5.34624 102.165 5.52774 101.763 5.89073C101.362 6.24417 101.123 6.72656 101.047 7.33791H105.417Z" fill="#1A1A1A"/>
<path d="M94.5553 3.9707C95.1762 3.9707 95.7302 4.09966 96.2174 4.35757C96.7141 4.61549 97.101 4.99758 97.378 5.50386C97.6646 6.01013 97.8079 6.62148 97.8079 7.33791V11.9947H96.1887V7.5815C96.1887 6.87462 96.012 6.33491 95.6586 5.96237C95.3051 5.58028 94.8228 5.38923 94.2114 5.38923C93.6001 5.38923 93.1129 5.58028 92.7499 5.96237C92.3965 6.33491 92.2197 6.87462 92.2197 7.5815V11.9947H90.6006V7.5815C90.6006 6.87462 90.4239 6.33491 90.0705 5.96237C89.717 5.58028 89.2346 5.38923 88.6233 5.38923C88.0119 5.38923 87.5248 5.58028 87.1618 5.96237C86.8083 6.33491 86.6316 6.87462 86.6316 7.5815V11.9947H84.9982V4.09966H86.6316V5.00236C86.8991 4.67758 87.2382 4.42444 87.6489 4.24295C88.0597 4.06145 88.4991 3.9707 88.9672 3.9707C89.5976 3.9707 90.1612 4.10444 90.6579 4.3719C91.1547 4.63937 91.5367 5.02624 91.8042 5.53251C92.043 5.0549 92.4156 4.67758 92.9218 4.40056C93.4281 4.11399 93.9726 3.9707 94.5553 3.9707Z" fill="#1A1A1A"/>
<path d="M79.2857 12.1236C78.5406 12.1236 77.8672 11.9565 77.2654 11.6221C76.6636 11.2783 76.1908 10.8006 75.8469 10.1893C75.503 9.56839 75.3311 8.85196 75.3311 8.04001C75.3311 7.23761 75.5078 6.52596 75.8612 5.90506C76.2146 5.28415 76.697 4.80653 77.3084 4.4722C77.9197 4.13787 78.6027 3.9707 79.3574 3.9707C80.112 3.9707 80.795 4.13787 81.4063 4.4722C82.0177 4.80653 82.5001 5.28415 82.8535 5.90506C83.207 6.52596 83.3837 7.23761 83.3837 8.04001C83.3837 8.84241 83.2022 9.55406 82.8392 10.175C82.4762 10.7959 81.9795 11.2783 81.349 11.6221C80.7281 11.9565 80.0404 12.1236 79.2857 12.1236ZM79.2857 10.7051C79.706 10.7051 80.0977 10.6048 80.4607 10.4042C80.8332 10.2036 81.1341 9.90272 81.3634 9.50152C81.5926 9.10032 81.7072 8.61315 81.7072 8.04001C81.7072 7.46687 81.5974 6.98447 81.3777 6.59283C81.158 6.19163 80.8666 5.89073 80.5037 5.69013C80.1407 5.48953 79.749 5.38923 79.3287 5.38923C78.9084 5.38923 78.5168 5.48953 78.1538 5.69013C77.8003 5.89073 77.5185 6.19163 77.3084 6.59283C77.0982 6.98447 76.9932 7.46687 76.9932 8.04001C76.9932 8.89017 77.2081 9.54928 77.6379 10.0173C78.0774 10.4759 78.6266 10.7051 79.2857 10.7051Z" fill="#1A1A1A"/>
<path d="M66.7251 8.04001C66.7251 7.22806 66.8875 6.51641 67.2123 5.90506C67.5466 5.28415 68.0051 4.80653 68.5878 4.4722C69.1705 4.13787 69.8392 3.9707 70.5938 3.9707C71.549 3.9707 72.3371 4.19996 72.958 4.65847C73.5885 5.10743 74.0135 5.75222 74.2332 6.59283H72.4708C72.3275 6.20118 72.0983 5.8955 71.7831 5.6758C71.4678 5.4561 71.0714 5.34624 70.5938 5.34624C69.9251 5.34624 69.3902 5.58505 68.989 6.06267C68.5974 6.53074 68.4015 7.18985 68.4015 8.04001C68.4015 8.89017 68.5974 9.55406 68.989 10.0317C69.3902 10.5093 69.9251 10.7481 70.5938 10.7481C71.5395 10.7481 72.1652 10.3326 72.4708 9.50152H74.2332C74.004 10.3039 73.5741 10.9439 72.9437 11.4215C72.3132 11.8896 71.5299 12.1236 70.5938 12.1236C69.8392 12.1236 69.1705 11.9565 68.5878 11.6221C68.0051 11.2783 67.5466 10.8006 67.2123 10.1893C66.8875 9.56839 66.7251 8.85196 66.7251 8.04001Z" fill="#1A1A1A"/>
<path d="M65.1249 1.39062V11.9937H63.4915V1.39062H65.1249Z" fill="#1A1A1A"/>
<path d="M61.884 7.85374C61.884 8.14986 61.8649 8.41733 61.8267 8.65614H55.7944C55.8422 9.28659 56.0762 9.79287 56.4965 10.175C56.9168 10.5571 57.4326 10.7481 58.044 10.7481C58.9228 10.7481 59.5437 10.3803 59.9067 9.64481H61.6691C61.4303 10.3708 60.9957 10.9678 60.3652 11.4359C59.7443 11.8944 58.9706 12.1236 58.044 12.1236C57.2893 12.1236 56.6111 11.9565 56.0093 11.6221C55.4171 11.2783 54.949 10.8006 54.6051 10.1893C54.2708 9.56839 54.1036 8.85196 54.1036 8.04001C54.1036 7.22806 54.266 6.51641 54.5908 5.90506C54.9251 5.28415 55.3884 4.80653 55.9807 4.4722C56.5825 4.13787 57.2702 3.9707 58.044 3.9707C58.7891 3.9707 59.4529 4.13309 60.0356 4.45787C60.6183 4.78265 61.0721 5.24117 61.3968 5.83341C61.7216 6.41611 61.884 7.08955 61.884 7.85374ZM60.1789 7.33791C60.1694 6.73611 59.9544 6.25372 59.5341 5.89073C59.1138 5.52774 58.5932 5.34624 57.9723 5.34624C57.4087 5.34624 56.9264 5.52774 56.5252 5.89073C56.124 6.24417 55.8851 6.72656 55.8087 7.33791H60.1789Z" fill="#1A1A1A"/>
<path d="M53.3011 2.03535L50.3494 11.9937H48.501L46.4091 4.45688L44.1881 11.9937L42.3541 12.008L39.5314 2.03535H41.2651L43.3284 10.1453L45.5637 2.03535H47.3977L49.4754 10.1023L51.553 2.03535H53.3011Z" fill="#1A1A1A"/>
<path d="M90.554 28.1097C90.554 28.5539 90.5253 28.9551 90.468 29.3133H81.4196C81.4912 30.259 81.8423 31.0184 82.4727 31.5915C83.1032 32.1647 83.8769 32.4513 84.7939 32.4513C86.1122 32.4513 87.0435 31.8996 87.588 30.7963H90.2316C89.8734 31.8853 89.2214 32.7808 88.2758 33.4829C87.3444 34.1707 86.1838 34.5146 84.7939 34.5146C83.662 34.5146 82.6447 34.2638 81.742 33.7623C80.8536 33.2465 80.1515 32.5301 79.6357 31.613C79.1342 30.6817 78.8834 29.607 78.8834 28.3891C78.8834 27.1712 79.127 26.1037 79.6142 25.1867C80.1157 24.2553 80.8106 23.5389 81.699 23.0374C82.6017 22.5359 83.6333 22.2852 84.7939 22.2852C85.9116 22.2852 86.9074 22.5287 87.7814 23.0159C88.6555 23.5031 89.3361 24.1909 89.8232 25.0792C90.3104 25.9533 90.554 26.9634 90.554 28.1097ZM87.9964 27.336C87.982 26.4333 87.6596 25.7097 87.0292 25.1652C86.3987 24.6207 85.6178 24.3485 84.6865 24.3485C83.8411 24.3485 83.1175 24.6207 82.5157 25.1652C81.9139 25.6953 81.5557 26.4189 81.4411 27.336H87.9964Z" fill="#1A1A1A"/>
<path d="M73.9015 24.198C74.2597 23.5962 74.7325 23.1305 75.32 22.801C75.9218 22.4571 76.631 22.2852 77.4478 22.2852V24.8213H76.8245C75.8645 24.8213 75.1337 25.0649 74.6322 25.5521C74.1451 26.0392 73.9015 26.8846 73.9015 28.0882V34.3211H71.4513V22.4786H73.9015V24.198Z" fill="#1A1A1A"/>
<path d="M68.2192 22.4785V34.3211H65.769V32.924C65.3822 33.4112 64.8735 33.7981 64.243 34.0846C63.6269 34.3569 62.9678 34.493 62.2657 34.493C61.3343 34.493 60.4961 34.2996 59.751 33.9127C59.0203 33.5258 58.44 32.9527 58.0101 32.1933C57.5946 31.4339 57.3868 30.5168 57.3868 29.4422V22.4785H59.8155V29.0768C59.8155 30.1371 60.0806 30.9538 60.6108 31.527C61.1409 32.0858 61.8645 32.3652 62.7815 32.3652C63.6985 32.3652 64.4221 32.0858 64.9523 31.527C65.4968 30.9538 65.769 30.1371 65.769 29.0768V22.4785H68.2192Z" fill="#1A1A1A"/>
<path d="M40.0543 26.8194C40.0543 25.3579 40.391 24.0468 41.0645 22.8862C41.7522 21.7256 42.6764 20.8229 43.837 20.1781C45.012 19.519 46.2944 19.1895 47.6843 19.1895C49.2747 19.1895 50.6861 19.5835 51.9183 20.3716C53.1649 21.1453 54.0676 22.2486 54.6264 23.6815H51.6819C51.295 22.8934 50.7577 22.3059 50.07 21.919C49.3822 21.5322 48.587 21.3387 47.6843 21.3387C46.6956 21.3387 45.8144 21.5608 45.0406 22.005C44.2669 22.4492 43.6579 23.0868 43.2138 23.9179C42.7839 24.7489 42.569 25.7161 42.569 26.8194C42.569 27.9227 42.7839 28.8899 43.2138 29.7209C43.6579 30.552 44.2669 31.1968 45.0406 31.6553C45.8144 32.0995 46.6956 32.3216 47.6843 32.3216C48.587 32.3216 49.3822 32.1281 50.07 31.7413C50.7577 31.3544 51.295 30.7669 51.6819 29.9788H54.6264C54.0676 31.4117 53.1649 32.515 51.9183 33.2887C50.6861 34.0625 49.2747 34.4494 47.6843 34.4494C46.2801 34.4494 44.9977 34.127 43.837 33.4822C42.6764 32.8231 41.7522 31.9132 41.0645 30.7526C40.391 29.592 40.0543 28.2809 40.0543 26.8194Z" fill="#1A1A1A"/>
<path d="M99.411 17.8359V20.7388H98.9349V18.7507L98.0494 20.7388H97.7194L96.8298 18.7507V20.7388H96.3536V17.8359H96.8674L97.8865 20.1123L98.9015 17.8359H99.411Z" fill="#1A1A1A"/>
<path d="M95.8714 17.8359V18.2244H95.0987V20.7388H94.6226V18.2244H93.8457V17.8359H95.8714Z" fill="#1A1A1A"/>
</svg>
