<svg width="21" height="22" viewBox="0 0 21 22" fill="none" xmlns="http://www.w3.org/2000/svg">
<path d="M11.8511 0.00425949C12.1035 -0.0205665 12.3584 0.0191596 12.5913 0.11949L12.7056 0.17516L12.815 0.239609C13.0276 0.377729 13.2014 0.56768 13.3208 0.79137L13.3765 0.90563L13.4214 1.02477C13.5012 1.26511 13.5193 1.52186 13.4732 1.77086L13.4439 1.89488C13.4403 1.90782 13.4372 1.92116 13.4331 1.93395L11.5132 7.95348L11.4966 8.00035H18.4995C18.877 7.99962 19.2472 8.10533 19.5669 8.30602C19.8874 8.50722 20.1438 8.79572 20.3072 9.1371C20.4705 9.4784 20.5342 9.8589 20.4898 10.2347C20.4509 10.5635 20.3311 10.8768 20.1421 11.1468L20.0562 11.2601L19.9976 11.3265L10.0972 21.5267L10.0962 21.5257C9.8775 21.7596 9.5908 21.9195 9.2749 21.9779C8.9404 22.0398 8.5945 21.986 8.29446 21.8255C7.99446 21.6651 7.75781 21.4067 7.62356 21.0941C7.48947 20.7816 7.46599 20.4328 7.55618 20.1048L7.56692 20.0658L9.4868 14.0463L9.5034 14.0004L2.49954 14.0004C2.12242 14.0009 1.75259 13.8942 1.43313 13.6937C1.11282 13.4926 0.856232 13.2048 0.692902 12.8636C0.529532 12.5222 0.465872 12.1409 0.510282 11.765C0.554742 11.3893 0.705502 11.0334 0.943882 10.7396L1.00247 10.6732L10.9029 0.47399C11.1216 0.23994 11.4092 0.0812695 11.7251 0.0228095L11.8511 0.00425949ZM2.50247 12.0004L9.4995 12.0004C9.8221 11.9998 10.1401 12.0771 10.4263 12.2259C10.7132 12.3752 10.9602 12.5914 11.145 12.8568C11.3299 13.1223 11.4474 13.4294 11.4878 13.7504C11.5261 14.055 11.4904 14.363 11.3902 14.6527L11.3931 14.6537L10.1265 18.6244L18.4976 10.0004H11.4995C11.1774 10.0008 10.8596 9.9234 10.5738 9.7748C10.2868 9.6255 10.0399 9.4084 9.855 9.1429C9.6703 8.87756 9.5527 8.57115 9.5122 8.25035C9.4738 7.94533 9.5084 7.63614 9.6089 7.34606H9.607L10.8726 3.37438L2.50247 12.0004Z" fill="#FAE006"/>
</svg>
