<svg width="23" height="20" viewBox="0 0 23 20" fill="none" xmlns="http://www.w3.org/2000/svg">
<path d="M20.5 6.5C20.5 5.30653 20.0256 4.16227 19.1816 3.31836C18.3377 2.47445 17.1935 2 16 2C15.2202 2 14.6131 2.10999 14.0518 2.35449C13.484 2.60181 12.9 3.01407 12.207 3.70703C11.8165 4.09756 11.1835 4.09756 10.793 3.70703C10.1 3.01407 9.516 2.60181 8.94824 2.35449C8.38687 2.10999 7.77982 2 7 2C5.80653 2 4.66227 2.47445 3.81836 3.31836C2.97445 4.16227 2.5 5.30653 2.5 6.5C2.5 8.116 3.41951 9.4583 4.65039 10.7363L11.5 17.5859L17.7998 11.2861L18.3447 10.7354C19.5754 9.446 20.5 8.1064 20.5 6.5ZM22.5 6.5C22.5 9.2396 20.6925 11.2488 19.2061 12.7061L19.207 12.707L12.207 19.707C11.8165 20.0976 11.1835 20.0976 10.793 19.707L3.80469 12.7188L3.23047 12.1465C1.87747 10.749 0.5 8.9088 0.5 6.5C0.5 4.77609 1.18433 3.12231 2.40332 1.90332C3.62231 0.68433 5.27609 0 7 0C7.98018 0 8.87344 0.14001 9.7471 0.52051C10.3603 0.78761 10.9318 1.16121 11.5 1.6416C12.0682 1.16121 12.6397 0.78761 13.2529 0.52051C14.1266 0.14001 15.0198 0 16 0C17.7239 0 19.3777 0.68433 20.5967 1.90332C21.8157 3.12231 22.5 4.77609 22.5 6.5Z" fill="#FAE006"/>
</svg>
